<svg xmlns="http://www.w3.org/2000/svg" version="1.1" xmlns:xlink="http://www.w3.org/1999/xlink" xmlns:svgjs="http://svgjs.dev/svgjs" width="1000" height="623" viewBox="0 0 1000 623"><g transform="matrix(1,0,0,1,-0.6060606060606233,0.2522267206477409)"><svg viewBox="0 0 396 247" data-background-color="#1f2d5a" preserveAspectRatio="xMidYMid meet" height="623" width="1000" xmlns="http://www.w3.org/2000/svg" xmlns:xlink="http://www.w3.org/1999/xlink"><g id="tight-bounds" transform="matrix(1,0,0,1,0.2400000000000091,-0.09999999999999432)"><svg viewBox="0 0 395.52 247.2" height="247.2" width="395.52"><g><svg></svg></g><g><svg viewBox="0 0 395.52 247.2" height="247.2" width="395.52"><g transform="matrix(1,0,0,1,39.55199999999999,100.76521942656524)"><svg viewBox="0 0 316.416 45.66956114686951" height="45.66956114686951" width="316.416"><g><svg viewBox="0 0 316.416 45.66956114686951" height="45.66956114686951" width="316.416"><g><svg viewBox="0 0 316.416 45.66956114686951" height="45.66956114686951" width="316.416"><g><svg viewBox="0 0 316.416 45.66956114686951" height="45.66956114686951" width="316.416"><g><svg viewBox="0 0 316.416 45.66956114686951" height="45.66956114686951" width="316.416"><g><svg viewBox="0 0 316.416 45.66956114686951" height="45.66956114686951" width="316.416"><g transform="matrix(1,0,0,1,0,0)"><svg width="316.416" viewBox="4.449999809265137 -36.5 256.3299865722656 37" height="45.66956114686951" data-palette-color="#fbfbfb"><path d="M7.95 0L4.45 0 4.45-35.5 19.15-35.5Q21.45-35.5 23.38-34.55 25.3-33.6 26.7-31.98 28.1-30.35 28.9-28.38 29.7-26.4 29.7-24.35L29.7-24.35Q29.7-21.45 28.43-18.88 27.15-16.3 24.85-14.7 22.55-13.1 19.45-13.1L19.45-13.1 7.95-13.1 7.95 0ZM7.95-32.4L7.95-16.2 19.3-16.2Q21.4-16.2 22.95-17.35 24.5-18.5 25.35-20.35 26.2-22.2 26.2-24.35L26.2-24.35Q26.2-26.55 25.2-28.4 24.2-30.25 22.58-31.33 20.95-32.4 19-32.4L19-32.4 7.95-32.4ZM56.75-15.25L56.75 0 53.35 0 53.35-14.55Q53.35-18.95 51.8-21.18 50.25-23.4 47.35-23.4L47.35-23.4Q45.45-23.4 43.57-22.43 41.7-21.45 40.27-19.78 38.85-18.1 38.25-15.95L38.25-15.95 38.25 0 34.85 0 34.85-36.5 38.25-36.5 38.25-20.15Q39.8-23.05 42.57-24.78 45.35-26.5 48.5-26.5L48.5-26.5Q50.75-26.5 52.32-25.7 53.9-24.9 54.87-23.38 55.85-21.85 56.3-19.83 56.75-17.8 56.75-15.25L56.75-15.25ZM75.09 0.5L75.09 0.5Q72.3 0.5 69.92-0.58 67.55-1.65 65.82-3.53 64.09-5.4 63.15-7.83 62.2-10.25 62.2-12.95L62.2-12.95Q62.2-15.75 63.15-18.18 64.09-20.6 65.84-22.48 67.59-24.35 69.97-25.43 72.34-26.5 75.15-26.5L75.15-26.5Q77.95-26.5 80.3-25.43 82.65-24.35 84.4-22.48 86.15-20.6 87.09-18.18 88.05-15.75 88.05-12.95L88.05-12.95Q88.05-10.25 87.09-7.83 86.15-5.4 84.42-3.53 82.7-1.65 80.32-0.58 77.95 0.5 75.09 0.5ZM65.65-12.9L65.65-12.9Q65.65-10 66.92-7.63 68.2-5.25 70.34-3.88 72.5-2.5 75.09-2.5L75.09-2.5Q77.7-2.5 79.84-3.9 82-5.3 83.3-7.73 84.59-10.15 84.59-13L84.59-13Q84.59-15.9 83.3-18.3 82-20.7 79.84-22.1 77.7-23.5 75.09-23.5L75.09-23.5Q72.5-23.5 70.37-22.05 68.25-20.6 66.95-18.23 65.65-15.85 65.65-12.9ZM115.64-15.25L115.64 0 112.24 0 112.24-14.55Q112.24-19.15 110.89-21.28 109.54-23.4 106.64-23.4L106.64-23.4Q104.64-23.4 102.69-22.43 100.74-21.45 99.27-19.78 97.79-18.1 97.14-15.95L97.14-15.95 97.14 0 93.74 0 93.74-26.05 96.84-26.05 96.84-20.15Q97.89-22.05 99.59-23.48 101.29-24.9 103.44-25.7 105.59-26.5 107.89-26.5L107.89-26.5Q110.04-26.5 111.54-25.7 113.04-24.9 113.94-23.43 114.84-21.95 115.24-19.88 115.64-17.8 115.64-15.25L115.64-15.25ZM134.14 0.5L134.14 0.5Q131.34 0.5 128.94-0.58 126.54-1.65 124.79-3.53 123.04-5.4 122.07-7.85 121.09-10.3 121.09-13.1L121.09-13.1Q121.09-16.75 122.77-19.8 124.44-22.85 127.39-24.68 130.34-26.5 134.09-26.5L134.09-26.5Q137.94-26.5 140.82-24.65 143.69-22.8 145.34-19.78 146.99-16.75 146.99-13.15L146.99-13.15Q146.99-12.75 146.99-12.38 146.99-12 146.94-11.8L146.94-11.8 124.64-11.8Q124.89-9 126.22-6.83 127.54-4.65 129.67-3.38 131.79-2.1 134.29-2.1L134.29-2.1Q136.84-2.1 139.12-3.4 141.39-4.7 142.29-6.8L142.29-6.8 145.24-6Q144.44-4.15 142.79-2.65 141.14-1.15 138.92-0.33 136.69 0.5 134.14 0.5ZM124.54-14.25L124.54-14.25 143.79-14.25Q143.59-17.1 142.27-19.25 140.94-21.4 138.82-22.63 136.69-23.85 134.14-23.85L134.14-23.85Q131.59-23.85 129.49-22.63 127.39-21.4 126.07-19.23 124.74-17.05 124.54-14.25ZM169.59-20.1L163.39-35.25 166.69-35.25 171.69-22.65 176.74-35.25 180.09-35.25 173.89-20.1 180.69-4.05 193.54-35.5 197.34-35.5 182.29 0 179.19 0 171.74-17.55 164.24 0 161.19 0 146.19-35.5 149.94-35.5 162.84-4.05 169.59-20.1ZM205.04 0L201.64 0 201.64-26.05 205.04-26.05 205.04 0ZM205.04-31.5L201.64-31.5 201.64-36.5 205.04-36.5 205.04-31.5ZM221.08 0.5L221.08 0.5Q217.88 0.5 215.13-0.55 212.38-1.6 210.38-3.75L210.38-3.75 211.78-6.15Q213.98-4.1 216.21-3.18 218.43-2.25 220.93-2.25L220.93-2.25Q223.98-2.25 225.88-3.48 227.78-4.7 227.78-7L227.78-7Q227.78-8.55 226.86-9.38 225.93-10.2 224.21-10.73 222.48-11.25 220.08-11.85L220.08-11.85Q217.38-12.6 215.56-13.43 213.73-14.25 212.81-15.53 211.88-16.8 211.88-18.85L211.88-18.85Q211.88-21.4 213.16-23.08 214.43-24.75 216.66-25.63 218.88-26.5 221.63-26.5L221.63-26.5Q224.63-26.5 226.93-25.55 229.23-24.6 230.68-22.9L230.68-22.9 229.03-20.6Q227.63-22.2 225.71-22.98 223.78-23.75 221.43-23.75L221.43-23.75Q219.83-23.75 218.38-23.33 216.93-22.9 216.01-21.93 215.08-20.95 215.08-19.25L215.08-19.25Q215.08-17.85 215.78-17.07 216.48-16.3 217.88-15.78 219.28-15.25 221.33-14.65L221.33-14.65Q224.28-13.85 226.48-13.03 228.68-12.2 229.88-10.9 231.08-9.6 231.08-7.25L231.08-7.25Q231.08-3.6 228.33-1.55 225.58 0.5 221.08 0.5ZM247.93 0.5L247.93 0.5Q245.13 0.5 242.73-0.58 240.33-1.65 238.58-3.53 236.83-5.4 235.86-7.85 234.88-10.3 234.88-13.1L234.88-13.1Q234.88-16.75 236.56-19.8 238.23-22.85 241.18-24.68 244.13-26.5 247.88-26.5L247.88-26.5Q251.73-26.5 254.61-24.65 257.48-22.8 259.13-19.78 260.78-16.75 260.78-13.15L260.78-13.15Q260.78-12.75 260.78-12.38 260.78-12 260.73-11.8L260.73-11.8 238.43-11.8Q238.68-9 240.01-6.83 241.33-4.65 243.46-3.38 245.58-2.1 248.08-2.1L248.08-2.1Q250.63-2.1 252.91-3.4 255.18-4.7 256.08-6.8L256.08-6.8 259.03-6Q258.23-4.15 256.58-2.65 254.93-1.15 252.71-0.33 250.48 0.5 247.93 0.5ZM238.33-14.25L238.33-14.25 257.58-14.25Q257.38-17.1 256.06-19.25 254.73-21.4 252.61-22.63 250.48-23.85 247.93-23.85L247.93-23.85Q245.38-23.85 243.28-22.63 241.18-21.4 239.86-19.23 238.53-17.05 238.33-14.25Z" opacity="1" transform="matrix(1,0,0,1,0,0)" fill="#ffffff" class="undefined-text-0" data-fill-palette-color="primary" id="text-0"></path></svg></g></svg></g></svg></g></svg></g></svg></g></svg></g></svg></g><g mask="url(#0304b6c2-c306-4d85-9d66-2bb644157aac)"><g transform="matrix(2.5020408163265304, 0, 0, 2.5020408163265304, 125.20081632653061, 1)"><svg xmlns="http://www.w3.org/2000/svg" xmlns:xlink="http://www.w3.org/1999/xlink" version="1.1" x="0" y="0" viewBox="21.300003051757812 0.5 58 98" enable-background="new 0 0 100 100" xml:space="preserve" height="98" width="58" class="icon-none" data-fill-palette-color="accent" id="none"><path fill="#ffffff" d="M69.3 0.5h-38c-5.5 0-10 4.5-10 10v78c0 5.5 4.5 10 10 10h38c5.5 0 10-4.5 10-10v-78C79.3 5 74.8 0.5 69.3 0.5zM50 93.2c-2.7 0-5-2.2-5-5 0-2.7 2.2-5 5-5s5 2.2 5 5C55 91 52.7 93.2 50 93.2zM71.3 79.5h-42v-66h42V79.5z" data-fill-palette-color="accent"></path></svg></g></g></svg></g><defs><mask id="0304b6c2-c306-4d85-9d66-2bb644157aac"><rect width="640" height="400" fill="white"></rect><rect width="348.05760000000004" height="67.23253578148625" fill="black" x="145.97119999999998" y="166.38373210925687" id="transform-me" transform="matrix(1,0,0,1,-122.24000000000001,-76.4)"></rect></mask></defs></svg><rect width="395.52" height="247.2" fill="none" stroke="none" visibility="hidden"></rect></g></svg></g></svg>